<svg width="47" height="75" viewBox="0 0 47 75" fill="none" xmlns="http://www.w3.org/2000/svg">
<path d="M0.5 75V0H47V75L24 60.5L0.5 75Z" fill="#84B73D"/>
<path d="M22.26 45.34V47.48H20.66V50H18.34V47.48H11.46V45.34L16.28 36H18.78L13.96 45.34H18.34V41.7H20.66V45.34H22.26ZM26.8616 47.6L25.4616 52.8H23.6616L24.4616 47.6H26.8616ZM36.8883 40.52C36.8883 41.5867 36.6083 42.5267 36.0483 43.34L31.6283 50H28.9883L32.1883 45.3H31.9483C30.4949 45.3 29.3016 44.86 28.3683 43.98C27.4483 43.0867 26.9883 41.9333 26.9883 40.52C26.9883 39.1067 27.4483 37.96 28.3683 37.08C29.3016 36.1867 30.4949 35.74 31.9483 35.74C33.4016 35.74 34.5883 36.1867 35.5083 37.08C36.4283 37.96 36.8883 39.1067 36.8883 40.52ZM29.2883 40.52C29.2883 41.2933 29.5349 41.92 30.0283 42.4C30.5349 42.88 31.1749 43.12 31.9483 43.12C32.7216 43.12 33.3549 42.8867 33.8483 42.42C34.3416 41.94 34.5883 41.3067 34.5883 40.52C34.5883 39.7333 34.3416 39.1067 33.8483 38.64C33.3549 38.16 32.7216 37.92 31.9483 37.92C31.1749 37.92 30.5349 38.16 30.0283 38.64C29.5349 39.1067 29.2883 39.7333 29.2883 40.52Z" fill="white"/>
</svg>
