<svg width="211" height="44" viewBox="0 0 211 44" fill="none" xmlns="http://www.w3.org/2000/svg">
<path d="M89.22 23.7V29.406H89.895V31.206H89.265V30H84.765V31.206H84.135V29.406H84.648C85.062 28.92 85.269 28.17 85.269 27.156V23.7H89.22ZM85.395 29.406H88.59V24.294H85.899V27.174C85.899 28.164 85.731 28.908 85.395 29.406ZM94.4391 29.433C93.9771 29.883 93.4191 30.108 92.7651 30.108C92.0991 30.108 91.5381 29.883 91.0821 29.433C90.6261 28.977 90.3981 28.416 90.3981 27.75C90.3981 27.084 90.6261 26.526 91.0821 26.076C91.5381 25.62 92.0991 25.392 92.7651 25.392C93.4251 25.392 93.9831 25.62 94.4391 26.076C94.9011 26.526 95.1321 27.084 95.1321 27.75C95.1321 28.41 94.9011 28.971 94.4391 29.433ZM91.5051 29.019C91.8471 29.361 92.2671 29.532 92.7651 29.532C93.2631 29.532 93.6831 29.361 94.0251 29.019C94.3671 28.665 94.5381 28.242 94.5381 27.75C94.5381 27.252 94.3671 26.832 94.0251 26.49C93.6831 26.142 93.2631 25.968 92.7651 25.968C92.2671 25.968 91.8471 26.142 91.5051 26.49C91.1631 26.832 90.9921 27.252 90.9921 27.75C90.9921 28.242 91.1631 28.665 91.5051 29.019ZM99.8521 25.5H100.536V30H99.9421V26.409L98.3671 28.965H98.2951L96.7201 26.409V30H96.1261V25.5H96.8101L98.3311 27.966L99.8521 25.5ZM105.665 26.382V25.5H106.259V30H105.665V29.118C105.251 29.778 104.645 30.108 103.847 30.108C103.205 30.108 102.656 29.88 102.2 29.424C101.75 28.968 101.525 28.41 101.525 27.75C101.525 27.09 101.75 26.532 102.2 26.076C102.656 25.62 103.205 25.392 103.847 25.392C104.645 25.392 105.251 25.722 105.665 26.382ZM102.632 29.019C102.974 29.361 103.394 29.532 103.892 29.532C104.39 29.532 104.81 29.361 105.152 29.019C105.494 28.665 105.665 28.242 105.665 27.75C105.665 27.252 105.494 26.832 105.152 26.49C104.81 26.142 104.39 25.968 103.892 25.968C103.394 25.968 102.974 26.142 102.632 26.49C102.29 26.832 102.119 27.252 102.119 27.75C102.119 28.242 102.29 28.665 102.632 29.019ZM110.361 28.965L113.043 25.5H113.547V30H112.953V26.535L110.271 30H109.767V25.5H110.361V28.965ZM119.051 30.108C118.409 30.108 117.869 29.895 117.431 29.469C116.999 29.037 116.783 28.479 116.783 27.795C116.783 27.027 116.897 26.439 117.125 26.031C117.353 25.617 117.815 25.242 118.511 24.906C118.733 24.804 118.907 24.726 119.033 24.672C119.243 24.588 119.408 24.516 119.528 24.456C120.05 24.216 120.314 23.919 120.32 23.565L120.788 23.835C120.758 23.985 120.71 24.12 120.644 24.24C120.566 24.372 120.488 24.477 120.41 24.555C120.338 24.633 120.224 24.717 120.068 24.807C119.966 24.867 119.843 24.933 119.699 25.005L119.249 25.194L118.826 25.374C118.412 25.554 118.103 25.743 117.899 25.941C117.701 26.133 117.56 26.385 117.476 26.697C117.668 26.439 117.92 26.244 118.232 26.112C118.544 25.974 118.859 25.905 119.177 25.905C119.777 25.905 120.272 26.103 120.662 26.499C121.058 26.889 121.256 27.39 121.256 28.002C121.256 28.608 121.046 29.112 120.626 29.514C120.212 29.91 119.687 30.108 119.051 30.108ZM117.881 29.073C118.193 29.367 118.583 29.514 119.051 29.514C119.519 29.514 119.903 29.373 120.203 29.091C120.509 28.803 120.662 28.44 120.662 28.002C120.662 27.558 120.518 27.195 120.23 26.913C119.948 26.625 119.57 26.481 119.096 26.481C118.67 26.481 118.283 26.616 117.935 26.886C117.587 27.144 117.413 27.498 117.413 27.948C117.413 28.404 117.569 28.779 117.881 29.073ZM126.029 26.382V25.5H126.623V30H126.029V29.118C125.615 29.778 125.009 30.108 124.211 30.108C123.569 30.108 123.02 29.88 122.564 29.424C122.114 28.968 121.889 28.41 121.889 27.75C121.889 27.09 122.114 26.532 122.564 26.076C123.02 25.62 123.569 25.392 124.211 25.392C125.009 25.392 125.615 25.722 126.029 26.382ZM122.996 29.019C123.338 29.361 123.758 29.532 124.256 29.532C124.754 29.532 125.174 29.361 125.516 29.019C125.858 28.665 126.029 28.242 126.029 27.75C126.029 27.252 125.858 26.832 125.516 26.49C125.174 26.142 124.754 25.968 124.256 25.968C123.758 25.968 123.338 26.142 122.996 26.49C122.654 26.832 122.483 27.252 122.483 27.75C122.483 28.242 122.654 28.665 122.996 29.019ZM131.067 27.462V25.5H131.661V30H131.067V28.038H128.475V30H127.881V25.5H128.475V27.462H131.067ZM133.511 28.965L136.193 25.5H136.697V30H136.103V26.535L133.421 30H132.917V25.5H133.511V28.965ZM143.974 29.433C143.512 29.883 142.954 30.108 142.3 30.108C141.634 30.108 141.073 29.883 140.617 29.433C140.161 28.977 139.933 28.416 139.933 27.75C139.933 27.084 140.161 26.526 140.617 26.076C141.073 25.62 141.634 25.392 142.3 25.392C142.96 25.392 143.518 25.62 143.974 26.076C144.436 26.526 144.667 27.084 144.667 27.75C144.667 28.41 144.436 28.971 143.974 29.433ZM141.04 29.019C141.382 29.361 141.802 29.532 142.3 29.532C142.798 29.532 143.218 29.361 143.56 29.019C143.902 28.665 144.073 28.242 144.073 27.75C144.073 27.252 143.902 26.832 143.56 26.49C143.218 26.142 142.798 25.968 142.3 25.968C141.802 25.968 141.382 26.142 141.04 26.49C140.698 26.832 140.527 27.252 140.527 27.75C140.527 28.242 140.698 28.665 141.04 29.019ZM144.945 25.5H148.725V26.076H147.132V30H146.538V26.076H144.945V25.5ZM154.885 27.462V25.5H155.479V30H154.885V28.038H152.293V30H151.699V25.5H152.293V27.462H154.885ZM160.506 29.433C160.044 29.883 159.486 30.108 158.832 30.108C158.166 30.108 157.605 29.883 157.149 29.433C156.693 28.977 156.465 28.416 156.465 27.75C156.465 27.084 156.693 26.526 157.149 26.076C157.605 25.62 158.166 25.392 158.832 25.392C159.492 25.392 160.05 25.62 160.506 26.076C160.968 26.526 161.199 27.084 161.199 27.75C161.199 28.41 160.968 28.971 160.506 29.433ZM157.572 29.019C157.914 29.361 158.334 29.532 158.832 29.532C159.33 29.532 159.75 29.361 160.092 29.019C160.434 28.665 160.605 28.242 160.605 27.75C160.605 27.252 160.434 26.832 160.092 26.49C159.75 26.142 159.33 25.968 158.832 25.968C158.334 25.968 157.914 26.142 157.572 26.49C157.23 26.832 157.059 27.252 157.059 27.75C157.059 28.242 157.23 28.665 157.572 29.019ZM165.055 27.687C165.547 27.867 165.793 28.218 165.793 28.74C165.793 29.112 165.667 29.415 165.415 29.649C165.169 29.883 164.824 30 164.38 30H162.193V25.5H164.2C164.632 25.5 164.968 25.611 165.208 25.833C165.454 26.055 165.577 26.346 165.577 26.706C165.577 27.156 165.403 27.483 165.055 27.687ZM164.2 26.076H162.787V27.444H164.2C164.722 27.444 164.983 27.21 164.983 26.742C164.983 26.532 164.914 26.37 164.776 26.256C164.644 26.136 164.452 26.076 164.2 26.076ZM162.787 29.424H164.38C164.644 29.424 164.845 29.361 164.983 29.235C165.127 29.109 165.199 28.932 165.199 28.704C165.199 28.488 165.127 28.32 164.983 28.2C164.845 28.08 164.644 28.02 164.38 28.02H162.787V29.424ZM166.693 25.5H169.573V26.076H167.287V30H166.693V25.5ZM173.892 29.433C173.43 29.883 172.872 30.108 172.218 30.108C171.552 30.108 170.991 29.883 170.535 29.433C170.079 28.977 169.851 28.416 169.851 27.75C169.851 27.084 170.079 26.526 170.535 26.076C170.991 25.62 171.552 25.392 172.218 25.392C172.878 25.392 173.436 25.62 173.892 26.076C174.354 26.526 174.585 27.084 174.585 27.75C174.585 28.41 174.354 28.971 173.892 29.433ZM170.958 29.019C171.3 29.361 171.72 29.532 172.218 29.532C172.716 29.532 173.136 29.361 173.478 29.019C173.82 28.665 173.991 28.242 173.991 27.75C173.991 27.252 173.82 26.832 173.478 26.49C173.136 26.142 172.716 25.968 172.218 25.968C171.72 25.968 171.3 26.142 170.958 26.49C170.616 26.832 170.445 27.252 170.445 27.75C170.445 28.242 170.616 28.665 170.958 29.019ZM177.991 25.392C178.633 25.392 179.179 25.62 179.629 26.076C180.085 26.532 180.313 27.09 180.313 27.75C180.313 28.41 180.085 28.968 179.629 29.424C179.179 29.88 178.633 30.108 177.991 30.108C177.193 30.108 176.587 29.778 176.173 29.118V31.8H175.579V25.5H176.173V26.382C176.587 25.722 177.193 25.392 177.991 25.392ZM176.686 29.019C177.028 29.361 177.448 29.532 177.946 29.532C178.444 29.532 178.864 29.361 179.206 29.019C179.548 28.665 179.719 28.242 179.719 27.75C179.719 27.252 179.548 26.832 179.206 26.49C178.864 26.142 178.444 25.968 177.946 25.968C177.448 25.968 177.028 26.142 176.686 26.49C176.344 26.832 176.173 27.252 176.173 27.75C176.173 28.242 176.344 28.665 176.686 29.019ZM185.072 29.433C184.61 29.883 184.052 30.108 183.398 30.108C182.732 30.108 182.171 29.883 181.715 29.433C181.259 28.977 181.031 28.416 181.031 27.75C181.031 27.084 181.259 26.526 181.715 26.076C182.171 25.62 182.732 25.392 183.398 25.392C184.058 25.392 184.616 25.62 185.072 26.076C185.534 26.526 185.765 27.084 185.765 27.75C185.765 28.41 185.534 28.971 185.072 29.433ZM182.138 29.019C182.48 29.361 182.9 29.532 183.398 29.532C183.896 29.532 184.316 29.361 184.658 29.019C185 28.665 185.171 28.242 185.171 27.75C185.171 27.252 185 26.832 184.658 26.49C184.316 26.142 183.896 25.968 183.398 25.968C182.9 25.968 182.48 26.142 182.138 26.49C181.796 26.832 181.625 27.252 181.625 27.75C181.625 28.242 181.796 28.665 182.138 29.019ZM190.363 25.5V29.424H190.993V31.206H190.399V30H186.727V31.206H186.133V29.424H186.682C186.988 29.016 187.141 28.449 187.141 27.723V25.5H190.363ZM187.402 29.424H189.769V26.076H187.735V27.723C187.735 28.419 187.624 28.986 187.402 29.424ZM193.813 30.108C193.135 30.108 192.571 29.883 192.121 29.433C191.671 28.971 191.446 28.41 191.446 27.75C191.446 27.084 191.671 26.526 192.121 26.076C192.571 25.62 193.135 25.392 193.813 25.392C194.257 25.392 194.656 25.5 195.01 25.716C195.364 25.926 195.622 26.211 195.784 26.571L195.298 26.85C195.178 26.58 194.983 26.367 194.713 26.211C194.449 26.049 194.149 25.968 193.813 25.968C193.315 25.968 192.895 26.142 192.553 26.49C192.211 26.832 192.04 27.252 192.04 27.75C192.04 28.242 192.211 28.665 192.553 29.019C192.895 29.361 193.315 29.532 193.813 29.532C194.143 29.532 194.44 29.454 194.704 29.298C194.974 29.142 195.184 28.926 195.334 28.65L195.829 28.938C195.643 29.298 195.37 29.583 195.01 29.793C194.65 30.003 194.251 30.108 193.813 30.108ZM197.906 27.66L200.318 30H199.526L197.276 27.831V30H196.682V25.5H197.276V27.489L199.418 25.5H200.228L197.906 27.66ZM201.723 28.965L204.405 25.5H204.909V30H204.315V26.535L201.633 30H201.129V25.5H201.723V28.965ZM208.19 27.669L209.945 30H209.234L207.83 28.146L206.426 30H205.715L207.479 27.669L205.832 25.5H206.543L207.83 27.201L209.117 25.5H209.828L208.19 27.669ZM88.356 36.5H89.04V41H88.446V37.409L86.871 39.965H86.799L85.224 37.409V41H84.63V36.5H85.314L86.835 38.966L88.356 36.5ZM94.1689 37.382V36.5H94.7629V41H94.1689V40.118C93.7549 40.778 93.1489 41.108 92.3509 41.108C91.7089 41.108 91.1599 40.88 90.7039 40.424C90.2539 39.968 90.0289 39.41 90.0289 38.75C90.0289 38.09 90.2539 37.532 90.7039 37.076C91.1599 36.62 91.7089 36.392 92.3509 36.392C93.1489 36.392 93.7549 36.722 94.1689 37.382ZM91.1359 40.019C91.4779 40.361 91.8979 40.532 92.3959 40.532C92.8939 40.532 93.3139 40.361 93.6559 40.019C93.9979 39.665 94.1689 39.242 94.1689 38.75C94.1689 38.252 93.9979 37.832 93.6559 37.49C93.3139 37.142 92.8939 36.968 92.3959 36.968C91.8979 36.968 91.4779 37.142 91.1359 37.49C90.7939 37.832 90.6229 38.252 90.6229 38.75C90.6229 39.242 90.7939 39.665 91.1359 40.019ZM98.1176 41.108C97.4396 41.108 96.8756 40.883 96.4256 40.433C95.9756 39.971 95.7506 39.41 95.7506 38.75C95.7506 38.084 95.9756 37.526 96.4256 37.076C96.8756 36.62 97.4396 36.392 98.1176 36.392C98.5616 36.392 98.9606 36.5 99.3146 36.716C99.6686 36.926 99.9266 37.211 100.089 37.571L99.6026 37.85C99.4826 37.58 99.2876 37.367 99.0176 37.211C98.7536 37.049 98.4536 36.968 98.1176 36.968C97.6196 36.968 97.1996 37.142 96.8576 37.49C96.5156 37.832 96.3446 38.252 96.3446 38.75C96.3446 39.242 96.5156 39.665 96.8576 40.019C97.1996 40.361 97.6196 40.532 98.1176 40.532C98.4476 40.532 98.7446 40.454 99.0086 40.298C99.2786 40.142 99.4886 39.926 99.6386 39.65L100.134 39.938C99.9476 40.298 99.6746 40.583 99.3146 40.793C98.9546 41.003 98.5556 41.108 98.1176 41.108ZM100.359 36.5H104.139V37.076H102.546V41H101.952V37.076H100.359V36.5ZM106.766 36.392C107.438 36.392 107.975 36.629 108.377 37.103C108.791 37.571 108.998 38.126 108.998 38.768C108.998 38.798 108.992 38.891 108.98 39.047H105.029C105.089 39.497 105.281 39.857 105.605 40.127C105.929 40.397 106.334 40.532 106.82 40.532C107.504 40.532 107.987 40.277 108.269 39.767L108.791 40.073C108.593 40.397 108.32 40.652 107.972 40.838C107.63 41.018 107.243 41.108 106.811 41.108C106.103 41.108 105.527 40.886 105.083 40.442C104.639 39.998 104.417 39.434 104.417 38.75C104.417 38.072 104.636 37.511 105.074 37.067C105.512 36.617 106.076 36.392 106.766 36.392ZM106.766 36.968C106.298 36.968 105.905 37.106 105.587 37.382C105.275 37.658 105.089 38.021 105.029 38.471H108.386C108.32 37.991 108.137 37.622 107.837 37.364C107.525 37.1 107.168 36.968 106.766 36.968ZM112.355 36.392C112.997 36.392 113.543 36.62 113.993 37.076C114.449 37.532 114.677 38.09 114.677 38.75C114.677 39.41 114.449 39.968 113.993 40.424C113.543 40.88 112.997 41.108 112.355 41.108C111.557 41.108 110.951 40.778 110.537 40.118V42.8H109.943V36.5H110.537V37.382C110.951 36.722 111.557 36.392 112.355 36.392ZM111.05 40.019C111.392 40.361 111.812 40.532 112.31 40.532C112.808 40.532 113.228 40.361 113.57 40.019C113.912 39.665 114.083 39.242 114.083 38.75C114.083 38.252 113.912 37.832 113.57 37.49C113.228 37.142 112.808 36.968 112.31 36.968C111.812 36.968 111.392 37.142 111.05 37.49C110.708 37.832 110.537 38.252 110.537 38.75C110.537 39.242 110.708 39.665 111.05 40.019ZM119.435 40.433C118.973 40.883 118.415 41.108 117.761 41.108C117.095 41.108 116.534 40.883 116.078 40.433C115.622 39.977 115.394 39.416 115.394 38.75C115.394 38.084 115.622 37.526 116.078 37.076C116.534 36.62 117.095 36.392 117.761 36.392C118.421 36.392 118.979 36.62 119.435 37.076C119.897 37.526 120.128 38.084 120.128 38.75C120.128 39.41 119.897 39.971 119.435 40.433ZM116.501 40.019C116.843 40.361 117.263 40.532 117.761 40.532C118.259 40.532 118.679 40.361 119.021 40.019C119.363 39.665 119.534 39.242 119.534 38.75C119.534 38.252 119.363 37.832 119.021 37.49C118.679 37.142 118.259 36.968 117.761 36.968C117.263 36.968 116.843 37.142 116.501 37.49C116.159 37.832 115.988 38.252 115.988 38.75C115.988 39.242 116.159 39.665 116.501 40.019ZM123.984 38.687C124.476 38.867 124.722 39.218 124.722 39.74C124.722 40.112 124.596 40.415 124.344 40.649C124.098 40.883 123.753 41 123.309 41H121.122V36.5H123.129C123.561 36.5 123.897 36.611 124.137 36.833C124.383 37.055 124.506 37.346 124.506 37.706C124.506 38.156 124.332 38.483 123.984 38.687ZM123.129 37.076H121.716V38.444H123.129C123.651 38.444 123.912 38.21 123.912 37.742C123.912 37.532 123.843 37.37 123.705 37.256C123.573 37.136 123.381 37.076 123.129 37.076ZM121.716 40.424H123.309C123.573 40.424 123.774 40.361 123.912 40.235C124.056 40.109 124.128 39.932 124.128 39.704C124.128 39.488 124.056 39.32 123.912 39.2C123.774 39.08 123.573 39.02 123.309 39.02H121.716V40.424Z" fill="#909195"/>
<path d="M84.5977 12.6338C84.4839 12.6338 84.4269 12.5769 84.4269 12.4631C84.4269 12.4175 84.4383 12.3264 84.4611 12.1898C84.4952 12.0532 84.5351 11.9451 84.5806 11.8654C85.0019 11.8426 85.2922 11.7288 85.4515 11.5238C85.6223 11.3075 85.7077 10.966 85.7077 10.4992V2.72931C85.7077 2.36501 85.6849 2.10886 85.6394 1.96086C85.5939 1.80147 85.4914 1.69901 85.332 1.65348C85.184 1.60794 84.9449 1.57378 84.6148 1.55102C84.6148 1.40302 84.6262 1.2664 84.6489 1.14117C84.6717 1.00456 84.6888 0.907791 84.7002 0.850869C84.7343 0.737024 84.7969 0.680101 84.888 0.680101H88.44C88.5538 0.680101 88.6107 0.737024 88.6107 0.850869C88.6107 0.896407 88.5937 0.987483 88.5595 1.1241C88.5367 1.26071 88.5026 1.36886 88.4571 1.44856C88.0017 1.45994 87.7057 1.5624 87.5691 1.75594C87.4325 1.93809 87.3641 2.26255 87.3641 2.72931V5.87144H93.4435V2.72931C93.4435 2.37639 93.4207 2.12024 93.3752 1.96086C93.3296 1.80147 93.2272 1.69901 93.0678 1.65348C92.9198 1.60794 92.6807 1.57378 92.3506 1.55102C92.3506 1.40302 92.3619 1.2664 92.3847 1.14117C92.4075 1.00456 92.4246 0.907791 92.4359 0.850869C92.4701 0.737024 92.5327 0.680101 92.6238 0.680101H96.1245C96.2384 0.680101 96.2953 0.737024 96.2953 0.850869C96.2953 0.896407 96.2782 0.987483 96.2441 1.1241C96.2213 1.26071 96.1871 1.36886 96.1416 1.44856C95.7204 1.45994 95.4414 1.5624 95.3048 1.75594C95.1682 1.93809 95.0999 2.26255 95.0999 2.72931V10.4992C95.0999 11.0002 95.1227 11.3246 95.1682 11.4726C95.2138 11.6206 95.3219 11.706 95.4927 11.7288C95.561 11.7401 95.6691 11.7515 95.8171 11.7629C95.9651 11.7629 96.0961 11.7629 96.2099 11.7629C96.2099 12.0703 96.1871 12.3037 96.1416 12.4631C96.1074 12.5769 96.0448 12.6338 95.9538 12.6338H92.2993C92.1855 12.6338 92.1286 12.5769 92.1286 12.4631C92.1286 12.4175 92.1399 12.3264 92.1627 12.1898C92.1969 12.0532 92.2367 11.9451 92.2822 11.8654C92.7035 11.8426 92.9995 11.7288 93.1702 11.5238C93.3524 11.3075 93.4435 10.966 93.4435 10.4992V6.98142H87.3641V10.4992C87.3641 11.0002 87.3869 11.3246 87.4325 11.4726C87.478 11.6206 87.5861 11.706 87.7569 11.7288C87.848 11.7401 87.9675 11.7515 88.1155 11.7629C88.2749 11.7629 88.4115 11.7629 88.5254 11.7629C88.5254 12.0703 88.5026 12.3037 88.4571 12.4631C88.4229 12.5769 88.3603 12.6338 88.2692 12.6338H84.5977Z" fill="#E5E5E6"/>
<path d="M103.382 12.89C102.551 12.89 101.777 12.7477 101.06 12.4631C100.354 12.1671 99.7334 11.7515 99.1983 11.2165C98.6633 10.6814 98.242 10.0495 97.9347 9.32094C97.6387 8.59233 97.4907 7.79542 97.4907 6.93019C97.4907 5.98528 97.6557 5.12006 97.9859 4.33453C98.3274 3.53761 98.7942 2.84885 99.3862 2.26824C99.9896 1.67625 100.69 1.22087 101.487 0.902099C102.284 0.583333 103.137 0.42395 104.048 0.42395C104.913 0.42395 105.705 0.577641 106.422 0.885023C107.15 1.18102 107.777 1.59655 108.3 2.13163C108.824 2.6667 109.228 3.29854 109.513 4.02714C109.809 4.74437 109.957 5.5299 109.957 6.38374C109.957 7.31727 109.792 8.18249 109.461 8.97941C109.143 9.77632 108.687 10.4651 108.095 11.0457C107.515 11.6263 106.82 12.0817 106.012 12.4118C105.215 12.7306 104.338 12.89 103.382 12.89ZM103.826 11.8483C104.703 11.8483 105.471 11.6377 106.131 11.2165C106.792 10.7952 107.304 10.2089 107.668 9.45755C108.033 8.70618 108.215 7.84095 108.215 6.86189C108.215 5.80313 108.021 4.8696 107.634 4.0613C107.259 3.253 106.723 2.62116 106.029 2.16578C105.335 1.69901 104.521 1.46563 103.587 1.46563C102.767 1.46563 102.027 1.68194 101.367 2.11455C100.718 2.53578 100.2 3.12208 99.8131 3.87345C99.426 4.62483 99.2325 5.48436 99.2325 6.45204C99.2325 7.52219 99.4317 8.46141 99.8302 9.26971C100.24 10.078 100.792 10.7098 101.487 11.1652C102.181 11.6206 102.961 11.8483 103.826 11.8483Z" fill="#E5E5E6"/>
<path d="M110.974 1.55102C110.974 1.40302 110.985 1.2664 111.008 1.14117C111.031 1.00456 111.048 0.907791 111.059 0.850869C111.093 0.737024 111.156 0.680101 111.247 0.680101H114.885C114.998 0.680101 115.055 0.737024 115.055 0.850869C115.055 0.896407 115.038 0.987483 115.004 1.1241C114.981 1.26071 114.947 1.36886 114.902 1.44856C114.446 1.45994 114.133 1.5624 113.962 1.75594C113.803 1.93809 113.723 2.26255 113.723 2.72931V8.36464C113.723 9.46894 113.997 10.3285 114.543 10.9432C115.101 11.558 115.864 11.8654 116.831 11.8654C117.947 11.8654 118.795 11.558 119.376 10.9432C119.968 10.3171 120.264 9.45755 120.264 8.36464V2.72931C120.264 2.36501 120.23 2.10316 120.161 1.94378C120.104 1.7844 119.979 1.68194 119.786 1.6364C119.603 1.59086 119.324 1.5624 118.949 1.55102C118.949 1.40302 118.96 1.2664 118.983 1.14117C119.006 1.00456 119.023 0.907791 119.034 0.850869C119.068 0.737024 119.131 0.680101 119.222 0.680101H122.415C122.529 0.680101 122.586 0.737024 122.586 0.850869C122.586 0.896407 122.569 0.987483 122.535 1.1241C122.512 1.26071 122.478 1.36886 122.432 1.44856C122.011 1.45994 121.715 1.5624 121.544 1.75594C121.385 1.93809 121.305 2.26824 121.305 2.74639V8.36464C121.305 9.25263 121.129 10.0382 120.776 10.7212C120.423 11.4043 119.899 11.9394 119.205 12.3264C118.511 12.7021 117.657 12.89 116.643 12.89C115.198 12.89 114.071 12.5257 113.262 11.7971C112.465 11.0571 112.067 9.91293 112.067 8.36464V2.72931C112.067 2.35362 112.044 2.08609 111.999 1.9267C111.953 1.76732 111.851 1.67055 111.691 1.6364C111.543 1.59086 111.304 1.5624 110.974 1.55102Z" fill="#E5E5E6"/>
<path d="M127.515 12.89C126.991 12.89 126.467 12.8217 125.944 12.6851C125.42 12.5484 124.953 12.3777 124.543 12.1728C124.133 11.9678 123.837 11.7572 123.655 11.5409L123.519 8.80864C123.61 8.78587 123.729 8.76879 123.877 8.75741C124.025 8.73464 124.133 8.72325 124.202 8.72325C124.304 8.72325 124.373 8.74602 124.407 8.79156C124.452 8.8371 124.481 8.89971 124.492 8.97941L124.851 10.6188C125.204 10.9945 125.631 11.3018 126.131 11.5409C126.644 11.78 127.162 11.8995 127.685 11.8995C128.425 11.8995 129.006 11.7003 129.427 11.3018C129.848 10.9034 130.059 10.3626 130.059 9.67955C130.059 9.08756 129.905 8.6151 129.598 8.26218C129.291 7.89788 128.904 7.60188 128.437 7.37419C127.97 7.1465 127.486 6.94158 126.985 6.75943C125.847 6.3382 125.039 5.87144 124.56 5.35913C124.082 4.84683 123.849 4.22637 123.86 3.49777C123.872 2.80331 124.065 2.22839 124.441 1.77301C124.817 1.31763 125.306 0.98179 125.909 0.765485C126.513 0.537795 127.156 0.42395 127.839 0.42395C128.738 0.42395 129.587 0.623179 130.384 1.02164L130.879 1.05579C130.993 1.06717 131.061 1.13548 131.084 1.26071L131.152 3.70269C131.061 3.72546 130.953 3.74823 130.828 3.77099C130.714 3.78238 130.628 3.78807 130.571 3.78807C130.446 3.78807 130.366 3.71976 130.332 3.58315L129.974 2.42193C129.803 2.09178 129.53 1.81855 129.154 1.60225C128.778 1.38594 128.306 1.27779 127.737 1.27779C127.35 1.27779 126.974 1.3404 126.61 1.46563C126.257 1.57948 125.966 1.76163 125.739 2.01209C125.522 2.26255 125.409 2.59839 125.397 3.01962C125.397 3.475 125.511 3.85638 125.739 4.16376C125.966 4.47114 126.268 4.72729 126.644 4.93221C127.019 5.13714 127.412 5.31929 127.822 5.47867C128.277 5.64944 128.733 5.84867 129.188 6.07636C129.644 6.29266 130.059 6.54881 130.435 6.84481C130.822 7.14081 131.129 7.49373 131.357 7.90357C131.596 8.30203 131.716 8.77448 131.716 9.32094C131.716 10.0495 131.528 10.6814 131.152 11.2165C130.788 11.7515 130.287 12.1671 129.649 12.4631C129.012 12.7477 128.3 12.89 127.515 12.89Z" fill="#E5E5E6"/>
<path d="M140.85 12.6509L132.91 12.6338C132.796 12.6338 132.739 12.5769 132.739 12.4631C132.739 12.4175 132.75 12.3264 132.773 12.1898C132.807 12.0532 132.847 11.9451 132.893 11.8654C133.314 11.8312 133.604 11.7117 133.763 11.5068C133.934 11.3018 134.02 10.966 134.02 10.4992V2.72931C134.02 2.34224 133.997 2.06901 133.951 1.90963C133.906 1.75024 133.803 1.65348 133.644 1.61932C133.496 1.57378 133.257 1.55102 132.927 1.55102C132.927 1.40302 132.938 1.2664 132.961 1.14117C132.984 1.00456 133.001 0.907791 133.012 0.850869C133.046 0.737024 133.109 0.680101 133.2 0.680101H140.628C140.754 0.680101 140.839 0.708563 140.884 0.765485C140.93 0.811023 140.958 0.896407 140.97 1.02164L141.106 3.13915C141.038 3.17331 140.936 3.20177 140.799 3.22454C140.662 3.24731 140.566 3.25869 140.509 3.25869C140.361 3.25869 140.275 3.19608 140.253 3.07085L140.116 2.35362C140.07 2.0804 140.002 1.90394 139.911 1.82424C139.82 1.74455 139.638 1.70471 139.365 1.70471L136.701 1.67055C136.37 1.65917 136.131 1.68194 135.983 1.73886C135.847 1.7844 135.761 1.88686 135.727 2.04624C135.693 2.19424 135.676 2.42762 135.676 2.74639V5.78605H137.947C138.414 5.78605 138.716 5.72913 138.852 5.61528C139 5.50144 139.08 5.27944 139.091 4.94929C139.171 4.90375 139.274 4.87529 139.399 4.86391C139.535 4.84114 139.626 4.82975 139.672 4.82975C139.786 4.82975 139.843 4.88668 139.843 5.00052L139.774 7.85234C139.774 7.94341 139.718 8.00603 139.604 8.04018C139.547 8.05157 139.456 8.06864 139.33 8.09141C139.205 8.11418 139.08 8.12557 138.955 8.12557C138.955 7.72711 138.932 7.43111 138.886 7.23758C138.852 7.04404 138.761 6.91881 138.613 6.86189C138.477 6.79358 138.255 6.75943 137.947 6.75943H135.676V10.4822C135.676 10.9945 135.744 11.3246 135.881 11.4726C136.018 11.6092 136.228 11.6718 136.513 11.6605L139.467 11.5921C139.797 11.5808 140.048 11.5295 140.218 11.4385C140.401 11.3474 140.532 11.1766 140.611 10.9262L140.884 10.1406C140.941 10.0154 141.027 9.95278 141.141 9.95278C141.198 9.95278 141.289 9.96986 141.414 10.004C141.539 10.0382 141.636 10.0723 141.704 10.1065L141.328 12.2411C141.271 12.5143 141.112 12.6509 140.85 12.6509Z" fill="#E5E5E6"/>
<path d="M158.113 12.89L155.739 5.5299L153.502 12.4289C153.411 12.7363 153.24 12.89 152.99 12.89H152.375L149.182 3.20746C148.886 2.28532 148.544 1.76732 148.157 1.65348C148.055 1.61932 147.947 1.59655 147.833 1.58517C147.73 1.57378 147.594 1.5624 147.423 1.55102C147.423 1.24363 147.446 1.01025 147.491 0.850869C147.525 0.737024 147.588 0.680101 147.679 0.680101H151.368C151.481 0.680101 151.538 0.737024 151.538 0.850869C151.538 0.896407 151.521 0.987483 151.487 1.1241C151.464 1.26071 151.43 1.36886 151.385 1.44856C151.089 1.45994 150.878 1.51117 150.753 1.60225C150.639 1.68194 150.582 1.81286 150.582 1.99501C150.582 2.10886 150.605 2.25116 150.65 2.42193C150.696 2.58131 150.753 2.76916 150.821 2.98546L153.109 10.0723C153.132 10.1179 153.166 10.1406 153.212 10.1406C153.257 10.1406 153.286 10.1179 153.297 10.0723L155.261 4.07838L154.988 3.20746C154.84 2.7407 154.68 2.38208 154.51 2.13163C154.339 1.88117 154.157 1.72178 153.963 1.65348C153.861 1.61932 153.753 1.59655 153.639 1.58517C153.536 1.57378 153.4 1.5624 153.229 1.55102C153.229 1.24363 153.252 1.01025 153.297 0.850869C153.331 0.737024 153.394 0.680101 153.485 0.680101H157.174C157.242 0.680101 157.27 0.714255 157.259 0.782562C157.259 0.816715 157.259 0.839484 157.259 0.850869C157.259 0.862253 157.259 0.873638 157.259 0.885023C157.259 0.95333 157.253 1.0501 157.242 1.17533C157.242 1.28917 157.225 1.38025 157.191 1.44856C156.895 1.45994 156.69 1.51117 156.576 1.60225C156.462 1.68194 156.405 1.80717 156.405 1.97793C156.405 2.09178 156.422 2.23409 156.456 2.40485C156.502 2.57562 156.559 2.76916 156.627 2.98546L158.847 10.0723C158.87 10.1179 158.904 10.1406 158.95 10.1406C158.995 10.1406 159.024 10.1179 159.035 10.0723L161.101 2.84885C161.158 2.6667 161.198 2.51301 161.221 2.38778C161.255 2.25116 161.272 2.13732 161.272 2.04624C161.272 1.85271 161.204 1.72748 161.067 1.67055C160.931 1.60225 160.697 1.5624 160.367 1.55102C160.367 1.40302 160.378 1.2664 160.401 1.14117C160.435 1.00456 160.458 0.907791 160.469 0.850869C160.504 0.737024 160.566 0.680101 160.657 0.680101H163.56C163.674 0.680101 163.731 0.737024 163.731 0.850869C163.731 0.896407 163.714 0.987483 163.68 1.1241C163.657 1.26071 163.623 1.36886 163.577 1.44856C163.213 1.49409 162.934 1.59655 162.741 1.75594C162.547 1.91532 162.371 2.26255 162.211 2.79762L159.24 12.4289C159.149 12.7363 158.978 12.89 158.728 12.89H158.113Z" fill="#E5E5E6"/>
<path d="M169.871 12.89C169.04 12.89 168.266 12.7477 167.549 12.4631C166.843 12.1671 166.223 11.7515 165.688 11.2165C165.153 10.6814 164.731 10.0495 164.424 9.32094C164.128 8.59233 163.98 7.79542 163.98 6.93019C163.98 5.98528 164.145 5.12006 164.475 4.33453C164.817 3.53761 165.283 2.84885 165.875 2.26824C166.479 1.67625 167.179 1.22087 167.976 0.902099C168.773 0.583333 169.627 0.42395 170.537 0.42395C171.403 0.42395 172.194 0.577641 172.911 0.885023C173.64 1.18102 174.266 1.59655 174.79 2.13163C175.313 2.6667 175.717 3.29854 176.002 4.02714C176.298 4.74437 176.446 5.5299 176.446 6.38374C176.446 7.31727 176.281 8.18249 175.951 8.97941C175.632 9.77632 175.177 10.4651 174.585 11.0457C174.004 11.6263 173.31 12.0817 172.501 12.4118C171.704 12.7306 170.828 12.89 169.871 12.89ZM170.315 11.8483C171.192 11.8483 171.96 11.6377 172.621 11.2165C173.281 10.7952 173.793 10.2089 174.158 9.45755C174.522 8.70618 174.704 7.84095 174.704 6.86189C174.704 5.80313 174.511 4.8696 174.124 4.0613C173.748 3.253 173.213 2.62116 172.518 2.16578C171.824 1.69901 171.01 1.46563 170.076 1.46563C169.257 1.46563 168.517 1.68194 167.856 2.11455C167.207 2.53578 166.689 3.12208 166.302 3.87345C165.915 4.62483 165.722 5.48436 165.722 6.45204C165.722 7.52219 165.921 8.46141 166.319 9.26971C166.729 10.078 167.281 10.7098 167.976 11.1652C168.67 11.6206 169.45 11.8483 170.315 11.8483Z" fill="#E5E5E6"/>
<path d="M177.719 12.6338C177.606 12.6338 177.549 12.5769 177.549 12.4631C177.549 12.4175 177.56 12.3264 177.583 12.1898C177.617 12.0532 177.657 11.9451 177.702 11.8654C178.124 11.8426 178.414 11.7288 178.573 11.5238C178.744 11.3075 178.829 10.966 178.829 10.4992V2.72931C178.829 2.34224 178.807 2.06901 178.761 1.90963C178.716 1.75024 178.613 1.65348 178.454 1.61932C178.306 1.57378 178.067 1.55102 177.736 1.55102C177.736 1.40302 177.748 1.2664 177.771 1.14117C177.793 1.00456 177.81 0.907791 177.822 0.850869C177.856 0.737024 177.919 0.680101 178.01 0.680101H182.142C183.497 0.680101 184.55 0.947637 185.301 1.48271C186.053 2.0064 186.429 2.75777 186.429 3.73684C186.429 4.55652 186.178 5.25098 185.677 5.8202C185.188 6.38943 184.55 6.82773 183.765 7.13512C184.413 8.12557 184.949 8.92817 185.37 9.54294C185.791 10.1577 186.15 10.6302 186.446 10.9603C186.742 11.2791 187.009 11.4954 187.248 11.6092C187.499 11.7231 187.766 11.78 188.051 11.78C188.074 11.9166 188.062 12.076 188.017 12.2581C187.983 12.4289 187.937 12.5541 187.88 12.6338C187.482 12.7932 187.072 12.8729 186.651 12.8729C186.286 12.8729 185.973 12.7818 185.711 12.5997C185.449 12.4175 185.131 12.0532 184.755 11.5068L182.245 7.5108C181.835 7.56773 181.419 7.59619 180.998 7.59619C180.827 7.59619 180.657 7.5905 180.486 7.57911V10.4992C180.486 11.0002 180.509 11.3246 180.554 11.4726C180.6 11.6206 180.708 11.706 180.879 11.7288C180.97 11.7401 181.089 11.7515 181.237 11.7629C181.397 11.7629 181.533 11.7629 181.647 11.7629C181.647 12.0703 181.624 12.3037 181.579 12.4631C181.545 12.5769 181.482 12.6338 181.391 12.6338H177.719ZM180.486 6.50328C180.907 6.58297 181.311 6.62281 181.698 6.62281C182.746 6.62281 183.508 6.39512 183.987 5.93974C184.476 5.48436 184.721 4.80698 184.721 3.90761C184.721 3.14485 184.482 2.56424 184.004 2.16578C183.525 1.75594 182.842 1.55102 181.954 1.55102C181.556 1.55102 181.214 1.57948 180.93 1.6364C180.748 1.68194 180.628 1.79578 180.571 1.97793C180.514 2.16009 180.486 2.41055 180.486 2.72931V6.50328Z" fill="#E5E5E6"/>
<path d="M196.532 12.6509L188.643 12.6338C188.529 12.6338 188.472 12.5769 188.472 12.4631C188.472 12.4175 188.483 12.3264 188.506 12.1898C188.54 12.0532 188.58 11.9451 188.625 11.8654C189.047 11.8312 189.337 11.7117 189.496 11.5068C189.667 11.3018 189.752 10.966 189.752 10.4992V2.72931C189.752 2.34224 189.73 2.06901 189.684 1.90963C189.639 1.75024 189.536 1.65348 189.377 1.61932C189.229 1.57378 188.99 1.55102 188.66 1.55102C188.66 1.40302 188.671 1.2664 188.694 1.14117C188.717 1.00456 188.734 0.907791 188.745 0.850869C188.779 0.737024 188.842 0.680101 188.933 0.680101H192.656C192.769 0.680101 192.826 0.737024 192.826 0.850869C192.826 0.896407 192.809 0.987483 192.775 1.1241C192.752 1.26071 192.718 1.36886 192.673 1.44856C192.172 1.45994 191.836 1.5624 191.665 1.75594C191.494 1.93809 191.409 2.26255 191.409 2.72931V10.4992C191.409 11.0115 191.477 11.3303 191.614 11.4555C191.75 11.5808 191.961 11.6377 192.246 11.6263L195.132 11.558C195.462 11.5466 195.707 11.4726 195.866 11.336C196.037 11.1994 196.173 11.0058 196.276 10.7554L196.617 9.90155C196.674 9.77632 196.76 9.71371 196.874 9.71371C196.93 9.71371 197.022 9.73078 197.147 9.76494C197.272 9.7877 197.369 9.81617 197.437 9.85032L197.01 12.2411C196.953 12.5143 196.794 12.6509 196.532 12.6509Z" fill="#E5E5E6"/>
<path d="M198.211 12.4801C198.211 12.4232 198.222 12.3264 198.245 12.1898C198.279 12.0532 198.319 11.9451 198.365 11.8654C198.786 11.8426 199.076 11.7288 199.235 11.5238C199.406 11.3075 199.492 10.966 199.492 10.4992V2.72931C199.492 2.35362 199.469 2.08609 199.423 1.9267C199.378 1.75594 199.275 1.65348 199.116 1.61932C198.968 1.57378 198.729 1.55102 198.399 1.55102C198.399 1.40302 198.41 1.2664 198.433 1.14117C198.456 1.00456 198.473 0.907791 198.484 0.850869C198.507 0.759792 198.541 0.708562 198.587 0.697178C198.632 0.685793 198.661 0.680101 198.672 0.680101H202.634C204.831 0.680101 206.522 1.15825 207.706 2.11455C208.889 3.05946 209.481 4.47683 209.481 6.36666C209.481 7.63034 209.185 8.74033 208.593 9.69663C208.002 10.6529 207.136 11.3929 205.998 11.9166C204.859 12.4289 203.47 12.668 201.831 12.6338H198.382C198.268 12.6338 198.211 12.5826 198.211 12.4801ZM201.148 10.4992C201.148 10.7725 201.165 10.9945 201.199 11.1652C201.245 11.336 201.359 11.4612 201.541 11.5409C201.723 11.6092 202.036 11.6434 202.48 11.6434C203.539 11.6434 204.467 11.4498 205.264 11.0628C206.06 10.6757 206.675 10.0894 207.108 9.30386C207.552 8.51833 207.774 7.53357 207.774 6.34958C207.774 5.18836 207.563 4.26622 207.142 3.58315C206.721 2.90008 206.134 2.41055 205.383 2.11455C204.643 1.81855 203.778 1.67055 202.787 1.67055H202.087C201.757 1.67055 201.518 1.75024 201.37 1.90963C201.222 2.06901 201.148 2.34224 201.148 2.72931V10.4992Z" fill="#E5E5E6"/>
<path d="M74 35.7191L40.8079 3.70803C39.241 2.19682 36.759 2.19682 35.1921 3.70803L2 35.7191" stroke="white" stroke-width="2.02247" stroke-linecap="round" stroke-linejoin="round"/>
<path d="M61.7303 9.02234V23.0448" stroke="white" stroke-width="2.02247" stroke-linecap="round" stroke-linejoin="round"/>
<rect x="31.9326" y="19.4044" width="5.1236" height="5.1236" rx="0.674157" fill="white"/>
<rect x="31.9326" y="25.8763" width="5.1236" height="5.1236" rx="0.674157" fill="white"/>
<rect x="38.5393" y="19.4044" width="5.1236" height="5.1236" rx="0.674157" fill="white"/>
<rect x="38.5393" y="25.8763" width="5.1236" height="5.1236" rx="0.674157" fill="white"/>
</svg>
