<svg width="52" height="12" viewBox="0 0 52 12" fill="none" xmlns="http://www.w3.org/2000/svg">
<path d="M5.15364 3.60993C5.47468 2.80959 5.63519 2.40942 5.89598 2.35396C5.96456 2.33937 6.03543 2.33937 6.104 2.35396C6.36479 2.40942 6.52531 2.80959 6.84634 3.60993C7.02891 4.06507 7.1202 4.29264 7.291 4.44742C7.33891 4.49084 7.39092 4.52951 7.44629 4.56288C7.64371 4.68187 7.89016 4.70394 8.38305 4.74808C9.21743 4.82281 9.63462 4.86017 9.76202 5.09804C9.78841 5.14731 9.80635 5.20065 9.81509 5.25585C9.85733 5.52236 9.55063 5.80139 8.93724 6.35945L8.7669 6.51442C8.48013 6.77532 8.33674 6.90577 8.25381 7.06858C8.20406 7.16623 8.1707 7.27141 8.15507 7.37989C8.12901 7.56073 8.171 7.74998 8.25498 8.12847L8.28498 8.2637C8.43558 8.94247 8.51088 9.28185 8.41688 9.44867C8.33245 9.59852 8.17693 9.69445 8.00513 9.70265C7.81387 9.71178 7.54437 9.49219 7.00538 9.05299C6.65028 8.76363 6.47273 8.61895 6.27562 8.56243C6.0955 8.51079 5.90449 8.51079 5.72436 8.56243C5.52726 8.61895 5.3497 8.76363 4.9946 9.05299C4.45561 9.49219 4.18612 9.71178 3.99486 9.70265C3.82306 9.69445 3.66753 9.59852 3.5831 9.44867C3.48911 9.28185 3.5644 8.94247 3.715 8.2637L3.74501 8.12847C3.82898 7.74998 3.87097 7.56073 3.84491 7.37989C3.82928 7.27141 3.79593 7.16623 3.74618 7.06858C3.66324 6.90577 3.51985 6.77532 3.23308 6.51442L3.06274 6.35945C2.44935 5.80139 2.14265 5.52236 2.18489 5.25585C2.19364 5.20065 2.21158 5.14731 2.23796 5.09804C2.36536 4.86017 2.78255 4.82281 3.61693 4.74808C4.10983 4.70394 4.35627 4.68187 4.55369 4.56288C4.60907 4.52951 4.66107 4.49084 4.70898 4.44742C4.87979 4.29264 4.97107 4.06507 5.15364 3.60993Z" fill="#F3B840" stroke="#F3B840"/>
<path d="M19.9726 3.26691C20.2936 2.46657 20.4541 2.0664 20.7149 2.01094C20.7835 1.99635 20.8544 1.99635 20.923 2.01094C21.1837 2.0664 21.3443 2.46657 21.6653 3.26691C21.8479 3.72205 21.9392 3.94962 22.11 4.10441C22.1579 4.14782 22.2099 4.18649 22.2652 4.21986C22.4627 4.33885 22.7091 4.36092 23.202 4.40507C24.0364 4.47979 24.4536 4.51715 24.581 4.75502C24.6074 4.80429 24.6253 4.85763 24.634 4.91283C24.6763 5.17934 24.3696 5.45837 23.7562 6.01643L23.5859 6.1714C23.2991 6.4323 23.1557 6.56276 23.0728 6.72556C23.023 6.82322 22.9897 6.92839 22.974 7.03687C22.948 7.21771 22.99 7.40696 23.0739 7.78545L23.1039 7.92068C23.2545 8.59945 23.3298 8.93883 23.2358 9.10565C23.1514 9.2555 22.9959 9.35143 22.8241 9.35963C22.6328 9.36877 22.3633 9.14917 21.8243 8.70997C21.4692 8.42061 21.2917 8.27593 21.0946 8.21942C20.9145 8.16777 20.7234 8.16777 20.5433 8.21942C20.3462 8.27593 20.1687 8.42061 19.8136 8.70997C19.2746 9.14917 19.0051 9.36877 18.8138 9.35963C18.642 9.35143 18.4865 9.2555 18.4021 9.10565C18.3081 8.93883 18.3834 8.59945 18.534 7.92069L18.564 7.78545C18.6479 7.40696 18.6899 7.21771 18.6639 7.03687C18.6482 6.92839 18.6149 6.82322 18.5651 6.72556C18.4822 6.56276 18.3388 6.4323 18.052 6.1714L17.8817 6.01643C17.2683 5.45837 16.9616 5.17934 17.0038 4.91283C17.0126 4.85763 17.0305 4.80429 17.0569 4.75502C17.1843 4.51715 17.6015 4.47979 18.4359 4.40507C18.9288 4.36092 19.1752 4.33885 19.3726 4.21986C19.428 4.18649 19.48 4.14782 19.5279 4.10441C19.6987 3.94962 19.79 3.72205 19.9726 3.26691Z" fill="#F3B840" stroke="#F3B840"/>
<path d="M32.9726 3.26691C33.2936 2.46657 33.4541 2.0664 33.7149 2.01094C33.7835 1.99635 33.8544 1.99635 33.923 2.01094C34.1837 2.0664 34.3443 2.46657 34.6653 3.26691C34.8479 3.72205 34.9392 3.94962 35.11 4.10441C35.1579 4.14782 35.2099 4.18649 35.2652 4.21986C35.4627 4.33885 35.7091 4.36092 36.202 4.40507C37.0364 4.47979 37.4536 4.51715 37.581 4.75502C37.6074 4.80429 37.6253 4.85763 37.634 4.91283C37.6763 5.17934 37.3696 5.45837 36.7562 6.01643L36.5859 6.1714C36.2991 6.4323 36.1557 6.56276 36.0728 6.72556C36.023 6.82322 35.9897 6.92839 35.974 7.03687C35.948 7.21771 35.99 7.40696 36.0739 7.78545L36.1039 7.92068C36.2545 8.59945 36.3298 8.93883 36.2358 9.10565C36.1514 9.2555 35.9959 9.35143 35.8241 9.35963C35.6328 9.36877 35.3633 9.14917 34.8243 8.70997C34.4692 8.42061 34.2917 8.27593 34.0946 8.21942C33.9145 8.16777 33.7234 8.16777 33.5433 8.21942C33.3462 8.27593 33.1687 8.42061 32.8136 8.70997C32.2746 9.14917 32.0051 9.36877 31.8138 9.35963C31.642 9.35143 31.4865 9.2555 31.4021 9.10565C31.3081 8.93883 31.3834 8.59945 31.534 7.92069L31.564 7.78545C31.6479 7.40696 31.6899 7.21771 31.6639 7.03687C31.6482 6.92839 31.6149 6.82322 31.5651 6.72556C31.4822 6.56276 31.3388 6.4323 31.052 6.1714L30.8817 6.01643C30.2683 5.45837 29.9616 5.17934 30.0038 4.91283C30.0126 4.85763 30.0305 4.80429 30.0569 4.75502C30.1843 4.51715 30.6015 4.47979 31.4359 4.40507C31.9288 4.36092 32.1752 4.33885 32.3726 4.21986C32.428 4.18649 32.48 4.14782 32.5279 4.10441C32.6987 3.94962 32.79 3.72205 32.9726 3.26691Z" fill="#F3B840" stroke="#F3B840"/>
<path d="M45.9726 3.26691C46.2936 2.46657 46.4541 2.0664 46.7149 2.01094C46.7835 1.99635 46.8544 1.99635 46.923 2.01094C47.1837 2.0664 47.3443 2.46657 47.6653 3.26691C47.8479 3.72205 47.9392 3.94962 48.11 4.10441C48.1579 4.14782 48.2099 4.18649 48.2652 4.21986C48.4627 4.33885 48.7091 4.36092 49.202 4.40507C50.0364 4.47979 50.4536 4.51715 50.581 4.75502C50.6074 4.80429 50.6253 4.85763 50.634 4.91283C50.6763 5.17934 50.3696 5.45837 49.7562 6.01643L49.5859 6.1714C49.2991 6.4323 49.1557 6.56276 49.0728 6.72556C49.023 6.82322 48.9897 6.92839 48.974 7.03687C48.948 7.21771 48.99 7.40696 49.0739 7.78545L49.1039 7.92068C49.2545 8.59945 49.3298 8.93883 49.2358 9.10565C49.1514 9.2555 48.9959 9.35143 48.8241 9.35963C48.6328 9.36877 48.3633 9.14917 47.8243 8.70997C47.4692 8.42061 47.2917 8.27593 47.0946 8.21942C46.9145 8.16777 46.7234 8.16777 46.5433 8.21942C46.3462 8.27593 46.1687 8.42061 45.8136 8.70997C45.2746 9.14917 45.0051 9.36877 44.8138 9.35963C44.642 9.35143 44.4865 9.2555 44.4021 9.10565C44.3081 8.93883 44.3834 8.59945 44.534 7.92069L44.564 7.78545C44.6479 7.40696 44.6899 7.21771 44.6639 7.03687C44.6482 6.92839 44.6149 6.82322 44.5651 6.72556C44.4822 6.56276 44.3388 6.4323 44.052 6.1714L43.8817 6.01643C43.2683 5.45837 42.9616 5.17934 43.0038 4.91283C43.0126 4.85763 43.0305 4.80429 43.0569 4.75502C43.1843 4.51715 43.6015 4.47979 44.4359 4.40507C44.9288 4.36092 45.1752 4.33885 45.3726 4.21986C45.428 4.18649 45.48 4.14782 45.5279 4.10441C45.6987 3.94962 45.79 3.72205 45.9726 3.26691Z" fill="#F3B840" stroke="#F3B840"/>
</svg>
