<svg width="28" height="22" viewBox="0 0 28 22" fill="none" xmlns="http://www.w3.org/2000/svg">
<g filter="url(#filter0_f_802_37)">
<circle cx="9" cy="9" r="5" fill="#FFBA4D"/>
</g>
<path d="M11.6392 16.2111H13.7384L8.89907 10.9685C8.39682 10.4244 8.41368 9.58083 8.93728 9.05723C9.47604 8.51847 10.3495 8.51847 10.8883 9.05723L14.8542 13.0231C14.8542 10.9509 16.9264 11.2697 17.0858 11.2697C16.4482 8.84683 18.4141 8.66619 19.4768 8.87872C19.0942 6.96593 20.5926 6.56439 21.7084 7.44413C24.4713 9.62259 28.4031 13.6607 26.8091 17.3269C24.966 21.5661 22.1866 20.8337 20.4332 20.9931C19.2184 21.1035 14.4091 19.867 11.2442 18.9815C10.5024 18.774 10.0714 18.0075 10.2698 17.2632C10.4353 16.6428 10.9971 16.2111 11.6392 16.2111Z" stroke="black" stroke-width="0.5"/>
<defs>
<filter id="filter0_f_802_37" x="0" y="0" width="18" height="18" filterUnits="userSpaceOnUse" color-interpolation-filters="sRGB">
<feFlood flood-opacity="0" result="BackgroundImageFix"/>
<feBlend mode="normal" in="SourceGraphic" in2="BackgroundImageFix" result="shape"/>
<feGaussianBlur stdDeviation="2" result="effect1_foregroundBlur_802_37"/>
</filter>
</defs>
</svg>
